<?xml version="1.0" encoding="utf-8"?>
<!-- Generator: Adobe Illustrator 16.0.0, SVG Export Plug-In . SVG Version: 6.00 Build 0)  -->
<!DOCTYPE svg PUBLIC "-//W3C//DTD SVG 1.1//EN" "http://www.w3.org/Graphics/SVG/1.1/DTD/svg11.dtd">
<svg version="1.1" id="Layer_1" xmlns="http://www.w3.org/2000/svg" xmlns:xlink="http://www.w3.org/1999/xlink" x="0px" y="0px"
	 width="14px" height="14px" viewBox="0 0 14 14" enable-background="new 0 0 14 14" xml:space="preserve">
<g>
	<g>
		<path fill="#DAD7CC" d="M0.771,13.875c-0.356,0-0.646-0.291-0.646-0.648V0.771c0-0.356,0.29-0.646,0.646-0.646h12.457
			c0.355,0,0.646,0.29,0.646,0.646v12.455c0,0.357-0.291,0.648-0.646,0.648H0.771z"/>
		<path fill="none" d="M13.228,0.25c0.287,0,0.521,0.233,0.521,0.521v12.455c0,0.289-0.234,0.523-0.521,0.523H0.771
			c-0.287,0-0.521-0.235-0.521-0.523V0.771c0-0.287,0.234-0.521,0.521-0.521H13.228 M13.228,0H0.771C0.345,0,0,0.347,0,0.771v12.455
			C0,13.654,0.346,14,0.771,14h12.457C13.654,14,14,13.653,14,13.226V0.771C14,0.345,13.653,0,13.228,0L13.228,0z"/>
	</g>
	<g>
		<path fill="#FFFFFF" d="M7.601,13.875V8.453H5.776V6.589h1.825V4.905c0-1.669,0.969-2.666,2.593-2.666
			c0.652,0,1.229,0.041,1.505,0.068v1.654h-0.992c-1.033,0-1.172,0.583-1.172,1.154v1.473h2.075l-0.239,1.863H9.535v5.422H7.601
			V13.875z"/>
		<path fill="#FFFFFF" d="M10.194,2.364c0.569,0,1.08,0.031,1.38,0.057v1.416h-0.867c-1.15,0-1.297,0.684-1.297,1.279v1.348v0.25
			h0.25h1.809l-0.209,1.614h-1.6H9.41v0.25v5.172H7.726V8.578v-0.25h-0.25H5.901V6.714h1.575h0.25v-0.25V4.905
			C7.726,3.314,8.648,2.364,10.194,2.364 M10.194,2.114c-1.612,0-2.718,0.984-2.718,2.791v1.559H5.651v2.114h1.825V14H9.66V8.578
			h1.82l0.271-2.114H9.66V5.116c0-0.611,0.17-1.029,1.047-1.029h1.117V2.196C11.632,2.171,10.968,2.114,10.194,2.114L10.194,2.114z"
			/>
	</g>
</g>
</svg>
