<?xml version="1.0" encoding="utf-8"?>
<!-- Generator: Adobe Illustrator 16.0.0, SVG Export Plug-In . SVG Version: 6.00 Build 0)  -->
<!DOCTYPE svg PUBLIC "-//W3C//DTD SVG 1.1//EN" "http://www.w3.org/Graphics/SVG/1.1/DTD/svg11.dtd">
<svg version="1.1" id="Layer_1" xmlns="http://www.w3.org/2000/svg" xmlns:xlink="http://www.w3.org/1999/xlink" x="0px" y="0px"
	 width="14px" height="14px" viewBox="0 0 14 14" enable-background="new 0 0 14 14" xml:space="preserve">
<g>
	<g>
		<path fill="#296976" d="M0.771,13.875c-0.356,0-0.646-0.291-0.646-0.648V0.771c0-0.356,0.29-0.646,0.646-0.646h12.458
			c0.354,0,0.646,0.29,0.646,0.646v12.456c0,0.356-0.291,0.647-0.646,0.647L0.771,13.875L0.771,13.875z"/>
		<path fill="none" d="M13.229,0.25c0.287,0,0.521,0.233,0.521,0.521v12.456c0,0.289-0.233,0.522-0.521,0.522H0.771
			c-0.287,0-0.521-0.235-0.521-0.522V0.771c0-0.287,0.234-0.521,0.521-0.521H13.229 M13.229,0H0.771C0.345,0,0,0.347,0,0.771v12.456
			C0,13.654,0.346,14,0.771,14h12.458C13.654,14,14,13.652,14,13.227V0.771C14,0.345,13.652,0,13.229,0L13.229,0z"/>
	</g>
	<g>
		<path fill="#FFFFFF" d="M7.602,13.875V8.453H5.776V6.589h1.826V4.905c0-1.669,0.969-2.666,2.592-2.666
			c0.652,0,1.229,0.041,1.506,0.068v1.654h-0.992c-1.033,0-1.172,0.583-1.172,1.154v1.473h2.074l-0.238,1.863H9.535v5.422H7.602
			V13.875z"/>
		<path fill="#FFFFFF" d="M10.193,2.364c0.57,0,1.08,0.031,1.381,0.057v1.416h-0.867c-1.15,0-1.297,0.684-1.297,1.279v1.348v0.25
			h0.25h1.809L11.26,8.328h-1.6H9.41v0.25v5.172H7.727V8.578v-0.25h-0.25H5.901V6.714h1.575h0.25v-0.25V4.905
			C7.727,3.314,8.648,2.364,10.193,2.364 M10.193,2.114c-1.611,0-2.717,0.984-2.717,2.791v1.559H5.651v2.114h1.825V14H9.66V8.578
			h1.82l0.271-2.114H9.66V5.116c0-0.611,0.17-1.029,1.047-1.029h1.117V2.196C11.632,2.171,10.968,2.114,10.193,2.114L10.193,2.114z"
			/>
	</g>
</g>
</svg>
