<?xml version="1.0" encoding="utf-8"?>
<!-- Generator: Adobe Illustrator 16.0.0, SVG Export Plug-In . SVG Version: 6.00 Build 0)  -->
<!DOCTYPE svg PUBLIC "-//W3C//DTD SVG 1.1//EN" "http://www.w3.org/Graphics/SVG/1.1/DTD/svg11.dtd">
<svg version="1.1" id="Layer_1" xmlns="http://www.w3.org/2000/svg" xmlns:xlink="http://www.w3.org/1999/xlink" x="0px" y="0px"
	 width="14px" height="14px" viewBox="0 0 14 14" enable-background="new 0 0 14 14" xml:space="preserve">
<path fill="#DAD7CC" d="
	M13.956,2.672c-0.513,0.228-1.065,0.381-1.645,0.451c0.592-0.354,1.046-0.916,1.26-1.584c-0.554,0.328-1.166,0.567-1.818,0.695
	c-0.524-0.557-1.268-0.905-2.091-0.905c-1.582,0-2.864,1.282-2.864,2.864c0,0.223,0.024,0.444,0.075,0.651
	c-2.382-0.118-4.491-1.26-5.904-2.992c-0.246,0.424-0.387,0.916-0.387,1.44c0,0.993,0.505,1.871,1.275,2.384
	C1.388,5.66,0.947,5.534,0.561,5.318c0,0.012,0,0.023,0,0.036c0,1.388,0.987,2.546,2.297,2.808c-0.24,0.065-0.494,0.101-0.754,0.101
	c-0.185,0-0.365-0.02-0.539-0.053c0.365,1.138,1.423,1.967,2.675,1.989c-0.98,0.77-2.215,1.227-3.558,1.227
	c-0.231,0-0.459-0.015-0.683-0.04c1.267,0.812,2.773,1.286,4.39,1.286c5.269,0,8.149-4.363,8.149-8.15
	c0-0.122-0.002-0.246-0.008-0.37C13.086,3.751,13.573,3.248,13.956,2.672z"/>
</svg>
